<?xml version="1.0" encoding="UTF-8"?>
<svg id="Layer_2" data-name="Layer 2" xmlns="http://www.w3.org/2000/svg" viewBox="0 0 285.42 102.94">
  <defs>
    <style>
      .cls-1 {
        fill: #231f20;
      }
    </style>
  </defs>
  <g id="Layer_1-2" data-name="Layer 1">
    <g>
      <path class="cls-1" d="M33.13,0h0C14.83,0,0,14.83,0,33.13v39.92h18.66v-39.59c0-7.84,6.36-14.2,14.2-14.2h0c7.84,0,14.2,6.36,14.2,14.2v39.59h19.2v-39.92C66.26,14.83,51.43,0,33.13,0Z"/>
      <path class="cls-1" d="M106.18,0h0c-18.3,0-33.13,14.83-33.13,33.13v39.92h18.66v-39.59c0-7.84,6.36-14.2,14.2-14.2h0c7.84,0,14.2,6.36,14.2,14.2v39.59h19.2v-39.92C139.31,14.83,124.48,0,106.18,0Z"/>
      <path class="cls-1" d="M252.29,102.94h0c18.3,0,33.13-14.83,33.13-33.13V29.89h-18.66v39.59c0,7.84-6.36,14.2-14.2,14.2h0c-7.84,0-14.2-6.36-14.2-14.2V29.89h-19.2v39.92c0,18.3,14.83,33.13,33.13,33.13Z"/>
      <path class="cls-1" d="M179.24,102.94h0c18.3,0,33.13-14.83,33.13-33.13V29.89h-18.66v39.59c0,7.84-6.36,14.2-14.2,14.2h0c-7.84,0-14.2-6.36-14.2-14.2V29.89h-19.2v39.92c0,18.3,14.83,33.13,33.13,33.13Z"/>
      <circle class="cls-1" cx="106.18" cy="49.54" r="9.45"/>
    </g>
  </g>
</svg>